<?xml version="1.0" standalone="no"?>
<!DOCTYPE svg PUBLIC "-//W3C//DTD SVG 20010904//EN"
 "http://www.w3.org/TR/2001/REC-SVG-20010904/DTD/svg10.dtd">
<svg version="1.0" xmlns="http://www.w3.org/2000/svg"
 width="700.000000pt" height="700.000000pt" viewBox="0 0 700.000000 700.000000"
 preserveAspectRatio="xMidYMid meet">
<metadata>
Created by potrace 1.11, written by Peter Selinger 2001-2013
</metadata>
<g transform="translate(0.000000,700.000000) scale(0.100000,-0.100000)"
fill="#000000" stroke="none">
<path d="M735 6992 c-89 -31 -131 -132 -89 -215 67 -131 286 -395 552 -664 61
-63 112 -118 112 -122 0 -4 -13 -17 -28 -28 -113 -83 -269 -258 -374 -418
-135 -204 -245 -487 -274 -700 -3 -27 -8 -59 -11 -70 -3 -11 -7 -99 -9 -195
-3 -193 5 -275 50 -486 15 -70 85 -256 135 -359 84 -170 179 -308 306 -444 27
-29 49 -56 48 -60 -1 -3 -16 -46 -34 -96 -17 -49 -35 -103 -39 -120 -5 -16
-18 -64 -30 -105 -27 -93 -59 -243 -75 -345 -20 -135 -27 -399 -12 -505 61
-435 317 -709 747 -799 53 -11 56 -14 92 -74 72 -121 219 -285 357 -397 l44
-36 1 -229 c2 -270 9 -300 86 -391 30 -35 105 -88 140 -99 14 -4 30 -12 37
-17 7 -5 54 -11 105 -14 78 -3 104 0 158 19 82 29 143 73 192 138 42 56 56 97
65 180 l6 56 36 -8 c20 -5 54 -12 76 -15 22 -3 46 -7 53 -9 95 -32 624 -24
742 10 8 3 33 7 55 11 22 3 43 8 48 11 4 2 8 -13 8 -34 7 -212 180 -367 404
-359 136 4 238 56 316 160 58 76 63 104 64 360 l1 229 30 25 c131 110 218 199
304 308 25 31 90 131 96 148 5 14 21 20 85 31 15 3 57 14 93 25 364 113 583
382 634 780 13 103 6 397 -11 485 -5 23 -14 74 -22 125 -11 70 -85 338 -122
447 l-39 112 51 53 c153 158 296 387 378 608 86 229 117 422 112 680 -2 96 -5
184 -8 195 -3 11 -8 43 -11 70 -12 89 -65 277 -110 387 -107 264 -286 516
-490 690 -39 34 -72 65 -74 69 -2 4 46 56 105 115 133 134 280 296 353 389 30
39 57 72 60 75 14 12 129 178 144 207 45 90 -9 202 -106 218 -70 12 -75 9
-288 -158 -18 -14 -132 -90 -215 -142 -72 -46 -349 -181 -390 -191 -16 -4 -34
-10 -40 -14 -10 -7 -139 -43 -200 -55 -16 -4 -84 -9 -150 -12 -146 -6 -198 5
-392 81 -76 29 -182 68 -235 85 -86 27 -120 36 -213 57 -79 18 -167 31 -260
40 -57 5 -682 4 -730 -1 -22 -2 -64 -7 -93 -10 -152 -16 -383 -80 -612 -170
-77 -30 -157 -59 -177 -64 -328 -88 -768 66 -1270 443 -122 92 -151 109 -186
112 -23 2 -51 0 -62 -4z m3115 -616 c167 -14 316 -51 535 -133 166 -62 286
-104 310 -108 11 -2 49 -9 85 -15 80 -14 284 -10 365 7 33 7 75 15 94 19 19 3
75 19 124 35 49 16 91 29 93 29 3 0 -23 -26 -58 -57 -34 -32 -69 -65 -78 -73
-43 -42 -302 -260 -435 -366 -332 -266 -772 -581 -1170 -836 -230 -148 -216
-140 -234 -124 -10 9 -23 16 -29 16 -7 0 -12 5 -12 10 0 6 -4 10 -10 10 -18 0
-559 359 -725 480 -27 20 -81 58 -119 85 -39 27 -77 54 -85 61 -9 7 -77 59
-151 115 -247 186 -504 398 -677 556 -45 41 -95 86 -110 100 -22 20 -23 24 -8
18 255 -88 520 -117 716 -76 52 11 160 45 240 76 205 81 361 129 484 151 11 2
34 6 50 9 17 3 77 8 135 11 58 4 106 7 107 8 6 4 495 -3 563 -8z m-2235 -652
c5 -6 49 -44 98 -84 48 -39 87 -73 87 -75 0 -1 -26 -19 -57 -40 -130 -86 -299
-285 -382 -453 -36 -71 -87 -218 -95 -276 -4 -21 -8 -48 -11 -60 -3 -12 -7
-34 -10 -51 -7 -38 -7 -237 -1 -267 3 -13 7 -41 10 -63 21 -177 123 -412 244
-560 271 -334 674 -499 1097 -451 143 16 335 82 460 157 37 23 68 39 69 37 2
-2 13 -41 26 -88 12 -47 32 -113 42 -148 11 -34 18 -68 15 -75 -12 -31 -260
-134 -402 -167 -144 -34 -203 -41 -349 -42 -169 -1 -283 14 -434 58 -95 28
-116 36 -242 96 -307 145 -566 406 -715 720 -52 110 -77 182 -112 328 -32 133
-40 410 -17 555 58 362 236 685 504 916 107 91 109 93 139 66 14 -12 30 -27
36 -33z m3957 -44 c241 -213 406 -498 479 -830 26 -122 34 -393 15 -525 -70
-467 -347 -873 -756 -1106 -96 -55 -179 -94 -245 -115 -186 -60 -327 -85 -479
-87 -100 -1 -273 10 -286 18 -4 2 -22 7 -41 10 -59 10 -147 35 -222 62 -83 30
-235 101 -243 114 -4 7 72 306 82 317 1 2 21 -9 45 -24 180 -113 416 -179 644
-178 516 3 982 347 1139 842 25 81 31 105 42 172 3 19 7 46 10 60 6 37 6 206
-1 270 -8 71 -48 231 -75 301 -79 202 -230 399 -400 525 l-80 59 28 25 c15 14
54 47 87 75 33 27 76 64 95 82 34 32 35 32 61 15 15 -9 60 -46 101 -82z m-477
-420 c148 -110 267 -282 319 -464 112 -385 -31 -775 -365 -1002 -146 -98 -311
-147 -499 -147 -368 1 -699 227 -832 570 -27 70 -58 199 -58 243 0 12 27 35
78 66 98 61 260 165 334 215 32 22 60 39 62 39 2 0 -8 -28 -22 -62 -30 -75
-40 -188 -23 -269 45 -218 246 -383 460 -380 91 1 126 9 206 46 119 55 204
150 252 280 27 76 25 231 -5 310 -47 126 -156 233 -286 285 -45 18 -80 24
-147 24 -48 1 -85 4 -83 7 2 4 43 35 91 70 92 66 267 195 293 216 8 7 26 21
40 32 l25 20 55 -31 c30 -17 77 -48 105 -68z m-2872 -23 c84 -62 182 -135 219
-161 37 -26 70 -51 73 -55 2 -5 -18 -6 -45 -3 -95 9 -222 -29 -307 -93 -288
-216 -243 -660 82 -811 79 -36 123 -46 214 -45 263 3 474 232 459 500 -4 60
-13 105 -30 149 -14 34 -23 62 -21 62 3 0 28 -16 54 -35 27 -19 51 -35 53 -35
3 0 33 -19 68 -43 35 -24 116 -76 181 -117 l119 -73 -6 -51 c-4 -28 -13 -76
-22 -106 -8 -30 -17 -62 -19 -71 -2 -10 -16 -43 -31 -75 -195 -418 -655 -624
-1089 -487 -276 87 -490 299 -583 578 -11 33 -23 76 -26 95 -3 19 -8 46 -11
60 -11 52 -6 218 8 290 36 180 113 326 240 459 72 75 221 181 255 181 7 0 81
-51 165 -113z m288 -541 c86 -36 126 -145 83 -229 -23 -43 -36 -54 -87 -76
-139 -60 -276 87 -211 226 37 78 134 113 215 79z m2121 -8 c95 -46 119 -177
46 -255 -123 -134 -337 -5 -279 168 30 92 140 133 233 87z m-1078 -902 c25
-33 46 -67 46 -76 0 -9 -20 -84 -45 -168 -25 -83 -45 -158 -45 -167 0 -43 -18
-2 -48 108 -19 67 -42 148 -51 180 l-18 57 51 65 c28 36 54 64 58 63 3 -2 27
-30 52 -62z m-2044 -820 l74 -46 2 -573 c2 -457 5 -588 17 -652 8 -44 14 -81
13 -82 -2 -2 -27 10 -56 25 -81 40 -179 142 -223 229 -56 114 -72 200 -72 393
0 187 11 280 59 485 14 59 74 253 82 267 8 12 15 9 104 -46z m4118 -53 c84
-283 112 -460 108 -678 -4 -180 -17 -246 -73 -365 -43 -90 -140 -192 -223
-233 -29 -15 -55 -26 -56 -24 -1 1 5 36 13 77 12 61 16 182 17 654 1 365 5
581 11 583 6 2 42 23 80 48 39 24 75 44 81 44 5 1 25 -47 42 -106z m-1683
-103 c99 -35 266 -75 360 -86 33 -3 69 -8 80 -10 32 -7 285 -6 340 1 58 6 136
17 150 21 6 1 28 5 50 8 22 3 69 15 105 26 36 11 68 20 71 20 3 0 5 -224 4
-497 -1 -409 -5 -511 -18 -573 -56 -270 -217 -518 -456 -704 -203 -158 -512
-293 -759 -332 -20 -3 -39 -7 -42 -9 -43 -26 -547 -26 -663 0 -12 3 -33 7 -47
9 -68 11 -279 71 -335 95 -111 48 -288 144 -365 199 -174 124 -331 303 -418
477 -30 61 -75 186 -86 240 -3 17 -8 44 -12 60 -9 42 -13 1024 -4 1030 4 2 36
-5 71 -15 35 -11 82 -22 104 -26 22 -3 42 -7 45 -9 3 -2 34 -6 70 -10 36 -4
79 -9 95 -11 38 -5 290 -5 330 0 169 20 277 43 418 91 57 19 139 51 181 71 88
41 86 42 106 -42 22 -90 71 -176 114 -200 52 -30 109 -25 147 12 35 33 80 124
104 210 l17 60 76 -37 c42 -20 118 -51 167 -69z m-1341 -2285 l76 -36 0 -74
c0 -72 -1 -75 -30 -90 -16 -8 -41 -15 -55 -15 -14 0 -39 7 -55 15 l-30 16 0
109 c0 61 4 110 9 110 4 0 43 -16 85 -35z m1886 -68 c0 -130 -7 -142 -83 -142
-77 0 -87 12 -87 101 l0 73 58 26 c31 14 64 29 72 35 36 22 40 13 40 -93z"/>
<path d="M2235 2453 c-70 -19 -116 -95 -109 -178 31 -337 406 -550 758 -431
67 23 103 42 202 111 10 7 17 7 22 0 15 -21 85 -67 137 -90 89 -40 170 -54
280 -51 136 4 255 47 357 128 l27 21 38 -30 c181 -141 433 -162 648 -53 148
75 239 188 270 335 15 74 12 122 -9 164 -43 81 -164 104 -233 43 -28 -24 -53
-76 -53 -108 0 -71 -67 -148 -157 -180 -46 -16 -134 -18 -187 -3 -82 23 -155
93 -162 158 -7 65 -16 90 -45 119 -95 97 -243 46 -265 -93 -11 -66 -16 -77
-50 -115 -111 -123 -366 -99 -439 41 -8 14 -16 44 -19 67 -14 115 -108 177
-211 137 -52 -19 -96 -81 -97 -137 -2 -77 -74 -153 -173 -179 -60 -17 -163 -6
-220 23 -60 29 -111 97 -113 150 -2 60 -25 100 -75 133 -29 18 -87 27 -122 18z"/>
<path d="M2632 1692 c-36 -11 -81 -60 -94 -104 -9 -31 -9 -55 0 -111 59 -340
474 -526 817 -366 33 15 79 42 102 60 l42 32 33 -25 c71 -54 151 -90 260 -117
56 -14 215 -6 283 13 220 64 372 233 392 437 10 105 -57 189 -151 189 -72 0
-140 -57 -151 -126 -3 -16 -7 -43 -10 -60 -7 -40 -58 -96 -115 -125 -36 -19
-61 -24 -125 -24 -96 0 -145 16 -197 63 -43 39 -57 66 -64 126 -7 53 -27 90
-64 116 -74 53 -185 28 -225 -50 -11 -22 -23 -80 -25 -117 0 -24 -75 -96 -120
-116 -29 -13 -72 -21 -120 -23 -64 -3 -84 1 -130 22 -83 38 -130 97 -130 161
0 15 -9 45 -20 68 -33 67 -110 99 -188 77z"/>
</g>
</svg>
